<?xml version="1.0" standalone="no"?>
<!DOCTYPE svg PUBLIC "-//W3C//DTD SVG 20010904//EN"
 "http://www.w3.org/TR/2001/REC-SVG-20010904/DTD/svg10.dtd">
<svg version="1.0" xmlns="http://www.w3.org/2000/svg"
 width="1650.000000pt" height="1650.000000pt" viewBox="0 0 1650.000000 1650.000000"
 preserveAspectRatio="xMidYMid meet">
<metadata>
Created by potrace 1.14, written by Peter Selinger 2001-2017
</metadata>
<g transform="translate(0.000000,1650.000000) scale(0.100000,-0.100000)"
fill="#000000" stroke="none">
<path d="M5543 10496 l-28 -24 -2 -654 c-1 -359 -2 -671 -3 -692 l0 -39 -45
46 c-203 205 -541 321 -915 312 -141 -3 -164 -6 -295 -32 -481 -94 -794 -420
-797 -829 -2 -321 188 -552 562 -685 118 -42 343 -94 490 -114 25 -4 68 -11
95 -16 28 -6 68 -12 90 -15 74 -11 229 -54 280 -79 58 -28 85 -67 85 -123 0
-115 -146 -185 -390 -186 -136 -1 -169 3 -263 35 -92 31 -174 90 -232 167 -35
47 -61 71 -85 79 -24 8 -128 12 -329 12 l-293 1 -35 -35 c-32 -32 -35 -39 -30
-78 7 -53 11 -70 32 -132 122 -356 435 -613 855 -701 41 -9 82 -17 90 -19 40
-8 184 -17 265 -17 134 1 259 15 395 46 39 9 176 53 196 64 11 5 37 19 59 30
76 38 120 64 168 99 30 22 47 30 48 21 0 -7 1 -35 0 -63 0 -27 4 -64 9 -81 19
-56 41 -59 367 -58 315 1 343 5 362 52 6 18 10 284 9 777 0 500 3 769 10 807
38 198 194 330 407 345 203 13 348 -58 420 -205 51 -104 52 -121 53 -917 0
-407 1 -754 1 -772 1 -38 41 -83 74 -84 12 0 154 -1 316 -1 l295 -1 28 32 28
31 0 163 0 163 68 -65 c85 -84 121 -113 204 -167 542 -356 1273 -263 1706 218
29 33 42 42 43 30 0 -9 0 -255 0 -547 0 -343 3 -541 10 -562 20 -63 21 -63
366 -63 l312 0 28 24 28 24 5 458 c4 407 7 456 20 443 47 -47 185 -125 285
-162 154 -57 257 -75 416 -71 134 2 178 8 281 34 260 67 509 234 673 452 38
51 45 56 47 36 0 -12 2 -27 3 -33 2 -5 3 -28 4 -51 1 -51 46 -103 89 -105 161
-6 432 0 450 10 47 25 55 55 67 251 4 52 8 115 10 140 2 25 6 90 10 145 3 55
8 116 10 135 2 19 6 82 10 140 3 58 8 121 10 140 1 19 6 85 10 145 4 61 8 124
10 140 2 17 6 75 10 130 3 55 8 120 10 145 20 230 24 747 7 792 -24 59 -29 60
-406 60 -299 0 -347 -2 -368 -16 -41 -27 -48 -57 -48 -203 l0 -136 -64 63
c-81 80 -200 164 -299 213 -88 43 -223 92 -281 101 -21 4 -41 8 -45 10 -11 7
-155 18 -231 18 -225 -1 -477 -86 -653 -218 -31 -24 -59 -44 -62 -44 -3 0 -5
28 -5 63 0 80 -6 98 -37 121 -24 18 -46 19 -319 19 -259 0 -296 -2 -319 -17
-14 -9 -30 -27 -34 -39 -5 -12 -9 -87 -9 -167 0 -80 -1 -157 -1 -173 l-1 -27
-37 42 c-211 237 -491 387 -807 432 -86 13 -313 14 -366 2 -14 -3 -51 -11 -83
-16 -287 -53 -603 -256 -787 -507 l-53 -73 -30 58 c-129 246 -349 429 -602
501 -130 36 -187 44 -325 45 -165 0 -290 -23 -412 -77 -29 -13 -60 -27 -68
-31 -8 -3 -30 -15 -47 -26 -23 -13 -33 -16 -34 -7 0 6 -1 272 -2 590 l-2 579
-28 24 -28 24 -314 0 -314 0 -28 -24z m-833 -1731 c30 -4 56 -7 57 -7 2 1 24
-8 50 -19 69 -29 110 -64 149 -125 57 -89 55 -89 316 -92 l228 -4 1 -31 c2
-123 0 -299 -4 -303 -2 -3 -26 8 -53 24 -46 27 -76 41 -99 48 -5 2 -38 14 -71
28 -113 47 -369 108 -599 142 -16 3 -52 9 -80 14 -27 5 -61 12 -75 14 -230 42
-320 89 -320 166 0 23 44 77 79 94 49 26 125 47 186 53 33 3 61 6 62 7 5 5
121 -2 173 -9z m4331 -29 c254 -76 431 -352 431 -675 0 -325 -157 -576 -416
-668 -154 -54 -331 -28 -476 68 -130 88 -237 255 -265 417 -3 18 -7 46 -10 63
-9 48 -9 169 -1 219 4 25 10 58 12 75 3 16 16 62 29 101 68 204 233 365 417
409 69 17 208 12 279 -9z m2361 -6 c236 -50 439 -280 475 -542 50 -354 -134
-687 -432 -781 -104 -33 -264 -30 -358 6 -186 72 -335 236 -392 430 -28 96
-29 109 -29 227 0 138 17 212 75 328 90 180 250 303 439 339 13 2 26 5 27 7 7
6 141 -3 195 -14z"/>
<path d="M12344 6700 c-53 -21 -54 -31 -54 -363 l0 -309 29 -29 29 -29 339 0
c369 0 371 0 391 57 5 16 9 159 10 318 0 269 -1 292 -19 321 -11 18 -29 34
-42 38 -35 9 -659 6 -683 -4z"/>
</g>
</svg>
